# xmcd
#
# Track frame offsets: 
#        150
#        16750
#        40095
#        65155
#        90500
#        114995
#        133920
#        159880
#        182725
#        207380
#
# Disc length: 3066 seconds
#
# Revision: 0
# Processed by: cddbd v1.5.2PL0 Copyright (c) Steve Scherf et al.
# Submitted via: ExactAudioCopy v1.0b3
#
DISCID=7f0bf80a
DTITLE=Phuong Dung, Tuan Vu - Han Mac Tu
DYEAR=1991
DGENRE=
TTITLE0=Phuong Dung - Mua rung
TTITLE1=Tuan Vu - Tu luc toi ra di
TTITLE2=Phuong Dung - Con duong xua em di
TTITLE3=Dam cuoi dau Xuan
TTITLE4=Phuong Dung - Han Mac Tu
TTITLE5=Phuong Dung - Bong nguoi cung thon
TTITLE6=Tuan Vu - Loi ta tu
TTITLE7=Phuong Dung - Tam anh khong hon
TTITLE8=Tuan Vu - Niem dau di vang
TTITLE9=Phuong Dung - Ngay em hai muoi tuoi
EXTD=
EXTT0=
EXTT1=
EXTT2=
EXTT3=
EXTT4=
EXTT5=
EXTT6=
EXTT7=
EXTT8=
EXTT9=
PLAYORDER=
